<svg width="24" height="24" viewBox="0 0 24 24" fill="none" xmlns="http://www.w3.org/2000/svg">
<path fill-rule="evenodd" clip-rule="evenodd" d="M20 19.15V9.65C20 9.1256 19.552 8.7 19 8.7H4.99999C4.44799 8.7 4.00001 9.1256 4.00001 9.65V19.15C4.00001 19.6744 4.44799 20.1 4.99999 20.1H19C19.552 20.1 20 19.6744 20 19.15ZM9.99999 5.85V6.8H14V5.85C14 5.3256 13.552 4.9 13 4.9H11C10.448 4.9 9.99999 5.3256 9.99999 5.85ZM20 6.8C21.105 6.8 22 7.65025 22 8.7V20.1C22 21.1497 21.105 22 20 22H4.00001C2.89501 22 2 21.1497 2 20.1V8.7C2 7.65025 2.89501 6.8 4.00001 6.8H8V4.9C8 3.85025 8.89499 3 9.99999 3H14C15.105 3 16 3.85025 16 4.9V6.8H20ZM11 17.25V15.35H9.00001C8.44801 15.35 8 14.9244 8 14.4C8 13.8756 8.44801 13.45 9.00001 13.45H11V11.55C11 11.0256 11.448 10.6 12 10.6C12.552 10.6 13 11.0256 13 11.55V13.45H15C15.552 13.45 16 13.8756 16 14.4C16 14.9244 15.552 15.35 15 15.35H13V17.25C13 17.7744 12.552 18.2 12 18.2C11.448 18.2 11 17.7744 11 17.25Z" fill="#ED4545"/>
</svg>
