<svg width="24" height="24" viewBox="0 0 24 24" fill="none" xmlns="http://www.w3.org/2000/svg">
<path fill-rule="evenodd" clip-rule="evenodd" d="M20.8 19.7C20.8 20.3072 20.3072 20.8 19.7 20.8H4.3C3.6928 20.8 3.2 20.3072 3.2 19.7V8.7C3.2 8.0928 3.6928 7.6 4.3 7.6H19.7C20.3072 7.6 20.8 8.0928 20.8 8.7V19.7ZM20.8 3.2V2.1C20.8 1.4928 20.3072 1 19.7 1C19.0928 1 18.6 1.4928 18.6 2.1V3.2H13.1V2.1C13.1 1.4928 12.6072 1 12 1C11.3928 1 10.9 1.4928 10.9 2.1V3.2H5.4V2.1C5.4 1.4928 4.9072 1 4.3 1C3.6928 1 3.2 1.4928 3.2 2.1V3.2C1.9845 3.2 1 4.1845 1 5.4V20.8C1 22.0144 1.9845 23 3.2 23H20.8C22.0155 23 23 22.0144 23 20.8V5.4C23 4.1845 22.0155 3.2 20.8 3.2Z" fill="#4285F4"/>
</svg>
