<svg width="20" height="20" viewBox="0 0 20 20" fill="none" xmlns="http://www.w3.org/2000/svg">
<path fill-rule="evenodd" clip-rule="evenodd" d="M18 10C18 5.589 14.411 2 10 2C5.589 2 2 5.589 2 10C2 14.411 5.589 18 10 18C14.411 18 18 14.411 18 10ZM20 10C20 15.523 15.523 20 10 20C4.477 20 0 15.523 0 10C0 4.477 4.477 0 10 0C15.523 0 20 4.477 20 10ZM16 11C16 11.552 15.552 12 15 12H11C9.895 12 9 11.105 9 10V5C9 4.448 9.448 4 10 4C10.552 4 11 4.448 11 5V9C11 9.55 11.45 10 12 10H15C15.552 10 16 10.448 16 11Z" fill="#4285F4"/>
</svg>
