<svg width="24" height="24" viewBox="0 0 24 24" fill="none" xmlns="http://www.w3.org/2000/svg">
<path fill-rule="evenodd" clip-rule="evenodd" d="M15.6748 7.45454C15.6748 5.44908 14.0267 3.81817 12 3.81817C9.97334 3.81817 8.32519 5.44908 8.32519 7.45454C8.32519 9.45999 9.97334 11.0909 12 11.0909C14.0267 11.0909 15.6748 9.45999 15.6748 7.45454ZM19.1512 20.1818H17.5122C17.0051 20.1818 16.5935 19.7745 16.5935 19.2727C16.5935 18.7709 17.0051 18.3636 17.5122 18.3636H17.9063C18.5421 18.3636 19.0115 17.73 18.7708 17.1473C17.6583 14.4527 15.0455 12.9091 12 12.9091C8.9545 12.9091 6.34171 14.4527 5.22916 17.1473C4.98846 17.73 5.45792 18.3636 6.09366 18.3636H6.48778C6.99491 18.3636 7.40649 18.7709 7.40649 19.2727C7.40649 19.7745 6.99491 20.1818 6.48778 20.1818H4.84882C3.70044 20.1818 2.79644 19.1427 3.03989 18.0327C3.70871 14.9791 5.79692 12.7254 8.54751 11.7027C7.29257 10.7036 6.48778 9.17272 6.48778 7.45454C6.48778 4.22635 9.32106 1.65362 12.6605 2.03816C15.0804 2.31634 17.085 4.22448 17.4479 6.60903C17.7603 8.66449 16.9105 10.5418 15.4525 11.7027C18.2031 12.7254 20.2913 14.9791 20.9601 18.0327C21.2036 19.1427 20.2996 20.1818 19.1512 20.1818ZM14.7561 19.2727C14.7561 19.7745 14.3445 20.1818 13.8374 20.1818H13.1061C13.1061 21.0909 13.2017 22 12.1874 22C11.6794 22 11.2687 21.5927 11.2687 21.0909V20.1818H10.1626C9.65547 20.1818 9.24389 19.7745 9.24389 19.2727C9.24389 18.7709 9.65547 18.3636 10.1626 18.3636H11.2687V17.4545C11.2687 16.9527 11.6794 16.5455 12.1874 16.5455C12.6945 16.5455 13.1061 16.9527 13.1061 17.4545V18.3636H13.8374C14.3445 18.3636 14.7561 18.7709 14.7561 19.2727Z" fill="#ED4545"/>
</svg>
