<svg width="24" height="24" viewBox="0 0 24 24" fill="none" xmlns="http://www.w3.org/2000/svg">
<path d="M12 4C15.4933 4.00013 18.0824 5.52591 19.8682 7.19238V7.19336C21.1257 8.378 22.1653 9.76032 22.9453 11.2793H22.9463C23.0164 11.4199 23.0169 11.572 22.9502 11.7109C22.1709 13.2323 21.1311 14.6161 19.873 15.8027C18.0859 17.4709 15.4959 18.9999 12 19C8.50582 19 5.91571 17.4736 4.12988 15.8066H4.13086C2.87251 14.6212 1.83192 13.238 1.05176 11.7178C1.01773 11.6486 1.00007 11.5749 1 11.501L1.0127 11.3887L1.05273 11.2803C1.83221 9.76107 2.87324 8.37875 4.13086 7.19336L4.12988 7.19238C5.91569 5.52564 8.50614 4 12 4ZM12 7.3125C10.8729 7.3125 9.78546 7.74653 8.97949 8.52832C8.17255 9.31111 7.71387 10.3795 7.71387 11.5C7.71387 12.5504 8.11686 13.5549 8.83203 14.3213L8.97949 14.4717C9.78546 15.2535 10.8729 15.6875 12 15.6875C13.0565 15.6874 14.0777 15.3061 14.8652 14.6143L15.0195 14.4717C15.8265 13.6889 16.2852 12.6206 16.2852 11.5C16.2852 10.3794 15.8265 9.31111 15.0195 8.52832C14.2137 7.74663 13.1269 7.31262 12 7.3125Z" stroke="#4285F4" stroke-width="2"/>
</svg>
