<svg width="24" height="24" viewBox="0 0 24 24" fill="none" xmlns="http://www.w3.org/2000/svg">
<path fill-rule="evenodd" clip-rule="evenodd" d="M4 21H5.99999V9.61178H4C2.895 9.61178 2 10.4611 2 11.5098V19.102C2 20.1506 2.895 21 4 21ZM17.5259 21H7.99998V9.61178L9.71897 3.73261C9.92197 2.48276 11.29 1.64378 12.676 2.14961C13.505 2.4514 13.9999 3.27041 13.9999 4.11409V8.66276C13.9999 9.18662 14.4479 9.61178 14.9999 9.61178H19.2639C21.0229 9.61178 22.3239 11.1644 21.9289 12.791L20.1909 18.9881C19.9049 20.1658 18.7999 21 17.5259 21Z" fill="white"/>
</svg>
