<svg width="15" height="23" viewBox="0 0 15 23" fill="none" xmlns="http://www.w3.org/2000/svg">
<path fill-rule="evenodd" clip-rule="evenodd" d="M7.5 20.3C5.54786 20.3 2.14286 12.611 2.14286 8.2C2.14286 5.1673 4.54607 2.7 7.5 2.7C10.4539 2.7 12.8571 5.1673 12.8571 8.2C12.8571 12.611 9.45214 20.3 7.5 20.3ZM7.5 10.6412C8.68393 10.6412 9.64286 9.65666 9.64286 8.44116C9.64286 7.22566 8.68393 6.24116 7.5 6.24116C6.31607 6.24116 5.35714 7.22566 5.35714 8.44116C5.35714 9.65666 6.31607 10.6412 7.5 10.6412Z" fill="#ED4545"/>
<path fill-rule="evenodd" clip-rule="evenodd" d="M2.14286 8.2C2.14286 12.611 5.54786 20.3 7.5 20.3C9.45214 20.3 12.8571 12.611 12.8571 8.2C12.8571 5.1673 10.4539 2.7 7.5 2.7C4.54607 2.7 2.14286 5.1673 2.14286 8.2ZM0 8.2C0 3.9474 3.35786 0.5 7.5 0.5C11.6421 0.5 15 3.9474 15 8.2C15 12.4526 11.6421 22.5 7.5 22.5C3.35786 22.5 0 12.4526 0 8.2Z" fill="#ED4545"/>
</svg>
