<svg width="13" height="19" viewBox="0 0 13 19" fill="none" xmlns="http://www.w3.org/2000/svg">
<path fill-rule="evenodd" clip-rule="evenodd" d="M8.35714 6.99731C8.35714 7.99181 7.52607 8.79731 6.5 8.79731C5.47393 8.79731 4.64286 7.99181 4.64286 6.99731C4.64286 6.00281 5.47393 5.19731 6.5 5.19731C7.52607 5.19731 8.35714 6.00281 8.35714 6.99731ZM6.5 16.7C4.80814 16.7 1.85714 10.409 1.85714 6.8C1.85714 4.3187 3.93993 2.3 6.5 2.3C9.06007 2.3 11.1429 4.3187 11.1429 6.8C11.1429 10.409 8.19186 16.7 6.5 16.7ZM6.5 0.5C2.91014 0.5 0 3.3206 0 6.8C0 10.2794 2.91014 18.5 6.5 18.5C10.0899 18.5 13 10.2794 13 6.8C13 3.3206 10.0899 0.5 6.5 0.5Z" fill="#ED4545"/>
</svg>
