<svg width="255" height="61" viewBox="0 0 255 61" fill="none" xmlns="http://www.w3.org/2000/svg">
<path d="M2.23851 43.5183C3.15365 44.1432 4.1732 44.4076 5.2505 44.4076C8.24991 44.4068 11.6958 42.3655 14.5878 40.3759C16.7639 38.8795 19.1762 36.9774 21.6839 34.7998C22.3436 35.4328 23.0189 36.0926 23.7127 36.7871C24.4072 37.4816 25.0676 38.1569 25.6999 38.8159C23.5224 41.3237 21.6217 43.7367 20.1254 45.9128C17.4199 49.8445 14.6182 54.8017 16.9816 58.2639C18.0907 59.8877 19.8003 60.5 21.7913 60.5C24.2961 60.5 27.2459 59.5308 30.001 58.3927C32.7538 59.5308 35.7029 60.5 38.2084 60.5C40.1987 60.5 41.909 59.8884 43.0181 58.2639C45.3808 54.8017 42.5798 49.8445 39.8758 45.9128C38.378 43.7375 36.4773 41.3237 34.2998 38.8159C34.9328 38.1561 35.5926 37.4809 36.2871 36.7871C36.9816 36.0933 37.6568 35.4336 38.3158 34.7998C40.8236 36.9774 43.2358 38.8795 45.4119 40.3759C48.3039 42.3662 51.7498 44.4076 54.7492 44.4076C55.8265 44.4076 56.8475 44.1432 57.7627 43.5183C61.43 41.0142 59.9336 35.4432 57.8901 30.5001C59.9336 25.5563 61.43 19.9853 57.7627 17.4819C54.299 15.1178 49.3435 17.9188 45.4112 20.6243C43.2351 22.1215 40.8228 24.0214 38.3151 26.1997C37.6553 25.5674 36.9801 24.9069 36.2863 24.2124C35.5918 23.5186 34.9328 22.8434 34.2991 22.1836C36.4766 19.6766 38.3772 17.2628 39.8751 15.0867C42.5791 11.155 45.3808 6.19857 43.0174 2.73634C40.5126 -0.93248 34.9425 0.56392 29.9995 2.6075C25.055 0.56392 19.4849 -0.93248 16.9801 2.73634C14.6174 6.19857 17.4184 11.155 20.1224 15.0867C21.6203 17.2628 23.5209 19.6766 25.6984 22.1836C25.0669 22.8441 24.4057 23.5194 23.7112 24.2124C23.0167 24.9062 22.3414 25.5667 21.6824 26.1997C19.1747 24.0214 16.7624 22.1207 14.5863 20.6243C10.654 17.9188 5.69697 15.117 2.23629 17.4819C-1.43245 19.9853 0.063922 25.5563 2.10746 30.5001C0.0668836 35.4425 -1.43023 41.0142 2.23851 43.5183ZM37.2459 54.0635C36.196 53.8813 34.3479 53.3734 31.2737 52.028C31.2552 52.0184 31.2345 52.0132 31.2145 52.0058C31.1656 51.9858 31.1146 51.9666 31.0657 51.9495C31.0153 51.931 30.9642 51.9133 30.9124 51.8977C30.8673 51.8844 30.8228 51.8733 30.7777 51.8614C30.7199 51.8466 30.6636 51.8326 30.6074 51.8214C30.5652 51.8133 30.5237 51.8081 30.4815 51.8015C30.4208 51.7918 30.3615 51.7837 30.3008 51.7778C30.2586 51.7733 30.2157 51.7718 30.1735 51.7689C30.1143 51.7659 30.055 51.763 29.9958 51.763C29.9491 51.763 29.9032 51.7659 29.8566 51.7674C29.8018 51.7704 29.7455 51.7726 29.69 51.7778C29.6411 51.7837 29.593 51.7911 29.5456 51.7978C29.4908 51.8052 29.4375 51.8133 29.3835 51.8237C29.3368 51.8326 29.2894 51.8444 29.2435 51.8562C29.1887 51.8703 29.1332 51.8837 29.0784 51.9007C29.0347 51.914 28.9933 51.9296 28.9496 51.9444C28.8918 51.9644 28.8356 51.9866 28.7793 52.0095C28.7623 52.0169 28.7445 52.0214 28.7275 52.0288C25.6533 53.3741 23.8052 53.8821 22.7568 54.0642C23.4972 52.2028 25.6681 48.6021 30.0017 43.5427C34.3339 48.6013 36.504 52.202 37.2459 54.0635ZM53.5638 23.255C53.3817 24.3035 52.8738 26.1516 51.5277 29.2258C51.5203 29.2436 51.5144 29.2621 51.5077 29.2806C51.4847 29.3339 51.4655 29.3887 51.4455 29.4428C51.43 29.4894 51.4137 29.5353 51.3996 29.582C51.3833 29.6323 51.3722 29.6834 51.3589 29.7338C51.3456 29.7856 51.333 29.8367 51.3226 29.8885C51.3122 29.9359 51.3071 29.9848 51.2997 30.0329C51.2908 30.0862 51.2826 30.1403 51.2782 30.1936C51.2723 30.2432 51.2708 30.2935 51.2678 30.3424C51.2663 30.395 51.2619 30.4483 51.2619 30.5001C51.2619 30.552 51.2663 30.6045 51.2678 30.6578C51.2708 30.7067 51.2723 30.7563 51.2782 30.8059C51.2826 30.86 51.2908 30.914 51.2997 30.9673C51.3071 31.0147 51.313 31.0643 51.3226 31.1117C51.333 31.1635 51.3456 31.2146 51.3589 31.2665C51.3722 31.3168 51.3833 31.3679 51.3996 31.4175C51.4137 31.4649 51.43 31.5108 51.4455 31.5575C51.4655 31.6108 51.4847 31.6656 51.5077 31.7196C51.5151 31.7374 51.521 31.7566 51.5277 31.7744C52.8738 34.8486 53.3817 36.6953 53.5638 37.7452C51.701 37.0033 48.1018 34.8324 43.0418 30.5001C48.1018 26.1664 51.7017 23.9962 53.5638 23.255ZM22.756 6.93456C23.8045 7.11744 25.6525 7.62538 28.7267 8.97073C28.7452 8.97962 28.766 8.98554 28.786 8.99368C28.8363 9.01367 28.8859 9.03292 28.9377 9.05143C28.9866 9.0692 29.0362 9.08623 29.0851 9.1003C29.1325 9.11511 29.1806 9.12696 29.2295 9.13955C29.2813 9.15287 29.3353 9.16546 29.3887 9.17657C29.436 9.1862 29.4827 9.19286 29.5301 9.19952C29.5849 9.20767 29.6396 9.21581 29.6937 9.22173C29.744 9.22618 29.7937 9.22766 29.8425 9.23062C29.8944 9.23358 29.9469 9.23654 29.9988 9.23654C30.0521 9.23654 30.1069 9.23358 30.1624 9.23062C30.209 9.22766 30.2564 9.22618 30.3023 9.22173C30.3601 9.21581 30.4163 9.20767 30.4726 9.19878C30.5193 9.19138 30.5637 9.18545 30.6088 9.17731C30.6636 9.16546 30.7169 9.15287 30.7725 9.13807C30.8199 9.12622 30.8665 9.11511 30.9124 9.10104C30.9628 9.08549 31.0139 9.06846 31.0627 9.04995C31.1131 9.03292 31.1642 9.01367 31.213 8.99368C31.233 8.9848 31.2537 8.97888 31.2723 8.97073C34.3464 7.62538 36.1945 7.11744 37.2444 6.93456C36.5025 8.79747 34.3316 12.3982 29.9995 17.4568C25.6673 12.3982 23.4965 8.79747 22.756 6.93456ZM28.207 28.7053C28.8156 28.0974 29.4146 27.4873 30.0017 26.8772C30.5881 27.4873 31.1856 28.0967 31.7943 28.7053C32.4029 29.314 33.0137 29.913 33.6223 30.5001C33.0137 31.0873 32.4036 31.6855 31.7943 32.2934C31.1856 32.9021 30.5881 33.5122 30.0017 34.1223C29.4146 33.5129 28.8156 32.9028 28.207 32.2934C27.5983 31.6855 26.9882 31.0873 26.3789 30.5001C26.989 29.913 27.5976 29.314 28.207 28.7053ZM16.9586 30.5001C11.8987 34.8331 8.29952 37.0033 6.43664 37.7452C6.61878 36.6953 7.12671 34.8486 8.47277 31.7744C8.48018 31.7566 8.4861 31.7374 8.49277 31.7196C8.51572 31.6663 8.53497 31.6115 8.55496 31.5575C8.57051 31.5108 8.58679 31.4649 8.6016 31.4175C8.61715 31.3679 8.629 31.3168 8.64233 31.2665C8.65565 31.2146 8.66824 31.1635 8.67861 31.1117C8.68897 31.0643 8.69415 31.0147 8.70156 30.9673C8.71044 30.914 8.71933 30.86 8.72303 30.8059C8.72895 30.7563 8.73043 30.7067 8.7334 30.6578C8.73636 30.6045 8.73932 30.552 8.73932 30.5001C8.73932 30.4483 8.73636 30.395 8.7334 30.3424C8.73043 30.2935 8.72895 30.2432 8.72303 30.1936C8.71859 30.1403 8.7097 30.0862 8.70156 30.0329C8.69415 29.9848 8.68897 29.9359 8.67861 29.8885C8.66824 29.8367 8.65565 29.7856 8.64233 29.7338C8.629 29.6834 8.61789 29.6323 8.6016 29.582C8.58679 29.5353 8.57125 29.4894 8.55496 29.4428C8.53497 29.3887 8.51572 29.3347 8.49277 29.2806C8.48536 29.2621 8.47944 29.2429 8.47277 29.2258C7.12671 26.1516 6.61878 24.3035 6.43664 23.255C8.29952 23.9955 11.8987 26.1664 16.9586 30.5001Z" fill="white"/>
<path d="M54.764 44.4179C52.3851 44.4179 49.3642 43.0948 45.4134 40.3759C41.3848 37.6053 36.5484 33.4604 31.795 28.7068C27.0408 23.9533 22.896 19.1161 20.1254 15.0881C16.1072 9.24839 15.1387 5.43889 16.9831 2.73707C19.7041 -1.24864 26.0501 0.863793 31.2745 3.15171C32.8827 3.85512 33.6142 5.7284 32.9115 7.33587C32.2074 8.94333 30.3312 9.67562 28.7267 8.97221C25.6296 7.61649 23.7771 7.11077 22.7324 6.93233C23.8319 9.77187 28.1966 16.1233 36.2863 24.2139C44.3775 32.3045 50.7288 36.6694 53.5675 37.7689C53.3898 36.7241 52.8826 34.8716 51.5277 31.7744C50.8236 30.1669 51.5573 28.2936 53.164 27.5902C54.7692 26.8876 56.6447 27.6184 57.3488 29.2266C59.6352 34.451 61.7491 40.7965 57.7627 43.5183C56.8897 44.1143 55.9006 44.4179 54.764 44.4179Z" fill="#ED4545"/>
<path d="M38.2092 60.4985C35.3127 60.4985 31.8231 59.2042 28.7275 57.8485C27.12 57.1451 26.3878 55.2718 27.0912 53.6644C27.7945 52.0562 29.6707 51.3261 31.2752 52.028C34.3731 53.3838 36.2241 53.8887 37.2696 54.0679C36.1693 51.2276 31.8046 44.8763 23.7127 36.7849C15.6214 28.695 9.27168 24.3316 6.4322 23.2313C6.61064 24.2761 7.11708 26.1286 8.47277 29.2258C9.17616 30.8333 8.44316 32.7066 6.83573 33.41C5.23125 34.1127 3.35579 33.3811 2.65166 31.7737C0.36453 26.5492 -1.75009 20.2037 2.23629 17.4819C4.93657 15.6375 8.7482 16.606 14.5886 20.6243C18.6164 23.3965 23.4543 27.5406 28.2077 32.2949C32.9611 37.0485 37.1052 41.8857 39.8758 45.9128C43.8933 51.7526 44.8618 55.5621 43.0181 58.2639C41.909 59.8877 40.2001 60.4985 38.2092 60.4985Z" fill="#ED4545"/>
<path d="M5.23718 44.4179C4.10064 44.4179 3.11145 44.1158 2.23703 43.5183C-1.75009 40.7965 0.364531 34.4503 2.65166 29.2258C3.35579 27.6176 5.23126 26.8868 6.83573 27.5895C8.44316 28.2929 9.17616 30.1669 8.47277 31.7744C7.11708 34.8716 6.61064 36.7234 6.4322 37.7682C9.27168 36.6686 15.6214 32.3045 23.7119 24.2146C31.8039 16.1233 36.1686 9.77187 37.2689 6.93159C36.2234 7.11077 34.3724 7.61575 31.2745 8.97147C29.67 9.67488 27.7938 8.94259 27.0904 7.33512C26.387 5.72766 27.1193 3.85438 28.7267 3.15097C33.9496 0.863794 40.2964 -1.2516 43.0174 2.73634C44.861 5.43741 43.8926 9.24691 39.8751 15.0867C37.1045 19.1146 32.9604 23.9518 28.207 28.7053C23.4535 33.4596 18.6164 37.6038 14.5878 40.3759C10.637 43.0948 7.61538 44.4172 5.23718 44.4179Z" fill="#4285F4"/>
<path d="M21.7935 60.4985C19.8018 60.4985 18.0922 59.8869 16.9838 58.2624C15.1394 55.5614 16.1079 51.7519 20.1261 45.9114C22.8967 41.8834 27.0416 37.0462 31.7957 32.2927C36.5492 27.5392 41.3848 23.3942 45.4141 20.6228C51.2537 16.6053 55.0609 15.6361 57.7642 17.4805C61.7513 20.2023 59.6367 26.5485 57.3503 31.7729C56.6462 33.3804 54.7707 34.1119 53.1655 33.4093C51.5588 32.7059 50.8258 30.8326 51.5299 29.2251C52.8849 26.1279 53.3913 24.2761 53.569 23.2306C50.7303 24.3309 44.379 28.695 36.2878 36.7856C28.1981 44.877 23.8334 51.2276 22.7338 54.0672C23.7786 53.8887 25.6311 53.383 28.7282 52.0273C30.3327 51.3254 32.2089 52.0554 32.913 53.6636C33.6157 55.2711 32.8841 57.1444 31.276 57.8478C28.1796 59.2043 24.6893 60.4985 21.7935 60.4985Z" fill="#4285F4"/>
<path d="M98.4367 15.6302V19.1165H89.3731V15.6302H98.4367ZM83.0916 21.0006H87.4696C87.5379 21.8808 87.7283 22.6176 88.0407 23.211C88.3628 23.8045 88.8216 24.2545 89.417 24.561C90.0125 24.8676 90.769 25.0209 91.6866 25.0209C92.4675 25.0209 93.1362 24.8726 93.6926 24.5759C94.249 24.2693 94.7029 23.8292 95.0543 23.2555C95.4155 22.672 95.679 21.9501 95.845 21.0896C96.0207 20.2292 96.1086 19.2402 96.1086 18.1226V16.6242C96.1086 15.7044 96.0451 14.8786 95.9182 14.1467C95.8011 13.405 95.6205 12.7621 95.3764 12.2182C95.1422 11.6643 94.8444 11.2094 94.4833 10.8533C94.1221 10.4874 93.7023 10.2154 93.224 10.0374C92.7555 9.84946 92.2283 9.75551 91.6427 9.75551C90.6763 9.75551 89.8953 9.91869 89.2999 10.2451C88.7142 10.5616 88.2749 11.0264 87.9821 11.6396C87.699 12.2528 87.5233 12.9945 87.455 13.8649H83.0769C83.2136 12.3912 83.6187 11.0857 84.2922 9.94836C84.9755 8.80111 85.9273 7.9011 87.1475 7.24835C88.3677 6.59561 89.8661 6.26923 91.6427 6.26923C92.9897 6.26923 94.205 6.51154 95.2886 6.99616C96.3819 7.47088 97.3141 8.16319 98.0853 9.07309C98.8564 9.98298 99.447 11.0758 99.857 12.3517C100.267 13.6275 100.472 15.0616 100.472 16.6539V18.1226C100.472 19.7149 100.272 21.149 99.8716 22.4248C99.4714 23.7006 98.8906 24.7885 98.1292 25.6885C97.3678 26.5786 96.4453 27.266 95.3618 27.7506C94.2783 28.2352 93.0532 28.4775 91.6866 28.4775C89.949 28.4775 88.4555 28.1611 87.206 27.5281C85.9663 26.8852 84.9951 26.005 84.2922 24.8874C83.5992 23.7599 83.1989 22.4643 83.0916 21.0006Z" fill="white"/>
<path d="M111.205 21.4605H106.241L106.212 18.6566H110.312C110.858 18.6566 111.302 18.6022 111.644 18.4934C111.986 18.3748 112.235 18.2017 112.391 17.9742C112.557 17.7369 112.64 17.45 112.64 17.1138C112.64 16.8171 112.586 16.5649 112.479 16.3572C112.381 16.1396 112.23 15.9616 112.025 15.8231C111.82 15.6846 111.561 15.5857 111.249 15.5264C110.946 15.4572 110.59 15.4226 110.18 15.4226H107.808V28.166H103.591V12.1143H110.18C111.214 12.1143 112.142 12.2083 112.962 12.3962C113.782 12.5742 114.48 12.8462 115.056 13.2121C115.641 13.578 116.085 14.0429 116.388 14.6066C116.7 15.1605 116.857 15.8182 116.857 16.5797C116.857 17.0742 116.744 17.539 116.52 17.9742C116.305 18.4094 115.983 18.7951 115.553 19.1314C115.124 19.4676 114.592 19.7445 113.957 19.9621C113.333 20.1698 112.61 20.2984 111.79 20.3478L111.205 21.4605ZM111.205 28.166H105.201L106.651 24.8578H111.205C111.722 24.8578 112.147 24.7935 112.479 24.6649C112.811 24.5363 113.055 24.3484 113.211 24.1012C113.377 23.844 113.46 23.5374 113.46 23.1814C113.46 22.8352 113.386 22.5336 113.24 22.2764C113.094 22.0193 112.854 21.8215 112.523 21.683C112.2 21.5347 111.761 21.4605 111.205 21.4605H107.266L107.295 18.6566H111.776L112.801 19.7841C113.914 19.8533 114.831 20.066 115.553 20.422C116.276 20.7781 116.808 21.233 117.149 21.7869C117.501 22.3308 117.677 22.9292 117.677 23.5819C117.677 24.3435 117.535 25.011 117.252 25.5847C116.969 26.1583 116.549 26.638 115.993 27.0237C115.446 27.3995 114.773 27.6863 113.972 27.8841C113.172 28.0721 112.249 28.166 111.205 28.166Z" fill="white"/>
<path d="M127.56 28.4627C126.33 28.4627 125.227 28.2649 124.251 27.8693C123.275 27.4638 122.445 26.905 121.762 26.1929C121.088 25.4808 120.571 24.655 120.21 23.7154C119.849 22.766 119.668 21.7572 119.668 20.6891V20.0956C119.668 18.8792 119.839 17.7665 120.18 16.7577C120.522 15.7489 121.01 14.8737 121.645 14.1319C122.289 13.3901 123.07 12.8214 123.987 12.4258C124.905 12.0203 125.94 11.8176 127.092 11.8176C128.214 11.8176 129.21 12.0055 130.079 12.3813C130.947 12.7572 131.675 13.2912 132.26 13.9835C132.856 14.6759 133.305 15.5066 133.607 16.4759C133.91 17.4352 134.061 18.5033 134.061 19.6803V21.4605H121.469V18.6121H129.918V18.2858C129.918 17.6923 129.81 17.1632 129.595 16.6984C129.39 16.2237 129.078 15.8478 128.658 15.5709C128.239 15.294 127.702 15.1555 127.048 15.1555C126.491 15.1555 126.013 15.2792 125.613 15.5264C125.213 15.7737 124.886 16.1198 124.632 16.5649C124.388 17.0099 124.202 17.5341 124.075 18.1374C123.958 18.7308 123.9 19.3836 123.9 20.0956V20.6891C123.9 21.3319 123.987 21.9253 124.163 22.4693C124.349 23.0132 124.607 23.483 124.939 23.8786C125.281 24.2742 125.691 24.5808 126.169 24.7984C126.657 25.016 127.209 25.1248 127.824 25.1248C128.585 25.1248 129.293 24.9764 129.947 24.6797C130.611 24.3731 131.182 23.9132 131.66 23.3001L133.71 25.555C133.378 26.0396 132.924 26.5045 132.348 26.9495C131.782 27.3946 131.099 27.7605 130.298 28.0473C129.498 28.3242 128.585 28.4627 127.56 28.4627Z" fill="white"/>
<path d="M140.68 15.2V34.3375H136.463V12.1143H140.372L140.68 15.2ZM150.71 19.9621V20.2737C150.71 21.4407 150.573 22.5237 150.3 23.5226C150.036 24.5215 149.646 25.3918 149.128 26.1336C148.611 26.8655 147.967 27.4391 147.195 27.8545C146.434 28.26 145.556 28.4627 144.56 28.4627C143.593 28.4627 142.754 28.2649 142.041 27.8693C141.329 27.4737 140.728 26.9198 140.24 26.2078C139.762 25.4858 139.376 24.6501 139.084 23.7006C138.791 22.7512 138.566 21.7325 138.41 20.6446V19.8286C138.566 18.6616 138.791 17.5934 139.084 16.6242C139.376 15.6451 139.762 14.7995 140.24 14.0874C140.728 13.3654 141.324 12.8066 142.027 12.411C142.739 12.0154 143.574 11.8176 144.531 11.8176C145.536 11.8176 146.419 12.0105 147.181 12.3962C147.952 12.7819 148.596 13.3357 149.114 14.0577C149.641 14.7797 150.036 15.6401 150.3 16.639C150.573 17.6379 150.71 18.7456 150.71 19.9621ZM146.478 20.2737V19.9621C146.478 19.2797 146.419 18.6517 146.302 18.0781C146.195 17.4945 146.019 16.9852 145.775 16.55C145.541 16.1149 145.229 15.7786 144.838 15.5412C144.457 15.294 143.994 15.1704 143.447 15.1704C142.871 15.1704 142.378 15.2643 141.968 15.4522C141.568 15.6401 141.241 15.9121 140.987 16.2682C140.733 16.6242 140.543 17.0495 140.416 17.544C140.289 18.0385 140.211 18.5973 140.182 19.2204V21.2825C140.231 22.0143 140.367 22.672 140.592 23.2555C140.816 23.8292 141.163 24.2841 141.631 24.6204C142.1 24.9567 142.715 25.1248 143.476 25.1248C144.033 25.1248 144.501 25.0012 144.882 24.7539C145.263 24.4968 145.57 24.1457 145.804 23.7006C146.048 23.2556 146.219 22.7413 146.317 22.1577C146.424 21.5742 146.478 20.9462 146.478 20.2737Z" fill="white"/>
<path d="M161.882 24.5462V17.3956C161.882 16.8814 161.799 16.4412 161.633 16.0753C161.467 15.6995 161.208 15.4077 160.857 15.2C160.515 14.9923 160.071 14.8885 159.524 14.8885C159.056 14.8885 158.651 14.9726 158.309 15.1407C157.967 15.2989 157.704 15.5313 157.518 15.8379C157.333 16.1346 157.24 16.4857 157.24 16.8912H153.023C153.023 16.2088 153.179 15.561 153.492 14.9478C153.804 14.3346 154.258 13.7956 154.853 13.3308C155.449 12.8561 156.157 12.4852 156.976 12.2182C157.806 11.9511 158.734 11.8176 159.759 11.8176C160.988 11.8176 162.082 12.0253 163.038 12.4407C163.995 12.8561 164.747 13.4791 165.293 14.3099C165.85 15.1407 166.128 16.1792 166.128 17.4253V24.294C166.128 25.1742 166.182 25.8962 166.289 26.46C166.396 27.0138 166.553 27.4984 166.758 27.9138V28.166H162.497C162.292 27.7308 162.135 27.1869 162.028 26.5341C161.93 25.8715 161.882 25.2089 161.882 24.5462ZM162.438 18.3896L162.467 20.8077H160.11C159.554 20.8077 159.07 20.872 158.66 21.0006C158.25 21.1292 157.914 21.3121 157.65 21.5495C157.386 21.777 157.191 22.044 157.064 22.3506C156.947 22.6572 156.889 22.9935 156.889 23.3594C156.889 23.7253 156.972 24.0567 157.138 24.3534C157.303 24.6402 157.543 24.8676 157.855 25.0358C158.167 25.194 158.533 25.2731 158.953 25.2731C159.588 25.2731 160.139 25.1446 160.608 24.8874C161.076 24.6303 161.438 24.3138 161.691 23.938C161.955 23.5621 162.092 23.2061 162.101 22.8698L163.214 24.6797C163.058 25.0852 162.843 25.5056 162.57 25.9407C162.306 26.3759 161.969 26.7863 161.56 27.172C161.15 27.5479 160.657 27.8594 160.081 28.1067C159.505 28.344 158.821 28.4627 158.031 28.4627C157.025 28.4627 156.113 28.26 155.293 27.8545C154.482 27.4391 153.838 26.8704 153.36 26.1484C152.891 25.4165 152.657 24.5858 152.657 23.6561C152.657 22.8154 152.813 22.0687 153.126 21.416C153.438 20.7632 153.897 20.2143 154.502 19.7693C155.117 19.3143 155.883 18.9731 156.801 18.7456C157.718 18.5083 158.782 18.3896 159.993 18.3896H162.438Z" fill="white"/>
<path d="M180.038 12.1143V15.4671H172.248V12.1143H180.038ZM183.128 12.1143V28.166H178.911V12.1143H183.128ZM171.194 12.1143H175.338L174.913 20.2143C174.855 21.3715 174.733 22.3902 174.547 23.2704C174.362 24.1506 174.113 24.9023 173.8 25.5253C173.498 26.1484 173.132 26.6578 172.702 27.0534C172.283 27.4391 171.79 27.7209 171.223 27.899C170.667 28.077 170.052 28.166 169.378 28.166H168.09L168.046 24.7984L168.588 24.7391C168.9 24.7094 169.173 24.6204 169.408 24.472C169.652 24.3138 169.857 24.0913 170.023 23.8045C170.198 23.5077 170.345 23.1369 170.462 22.6918C170.579 22.2369 170.672 21.7028 170.74 21.0896C170.818 20.4764 170.872 19.7693 170.901 18.9682L171.194 12.1143Z" fill="white"/>
<path d="M189.307 16.8764H193.904C195.349 16.8764 196.579 17.1187 197.594 17.6033C198.619 18.0781 199.4 18.7407 199.937 19.5913C200.484 20.4418 200.757 21.4259 200.757 22.5435C200.757 23.3545 200.601 24.1061 200.288 24.7984C199.986 25.4808 199.542 26.0742 198.956 26.5786C198.37 27.083 197.653 27.4737 196.803 27.7506C195.954 28.0275 194.988 28.166 193.904 28.166H186.671V12.1143H190.903V24.8429H193.904C194.539 24.8429 195.046 24.7391 195.427 24.5314C195.818 24.3138 196.101 24.0319 196.276 23.6858C196.462 23.3396 196.555 22.9638 196.555 22.5583C196.555 22.133 196.462 21.7473 196.276 21.4011C196.101 21.0451 195.818 20.7583 195.427 20.5407C195.046 20.3231 194.539 20.2143 193.904 20.2143H189.307V16.8764Z" fill="white"/>
<path d="M90.6482 46.1924V47.2683H85.3213V46.1924H90.6482ZM85.5241 41.9027V51.8801H84.2194V41.9027H85.5241ZM91.7839 41.9027V51.8801H90.486V41.9027H91.7839Z" fill="white" fill-opacity="0.4"/>
<path d="M98.2263 50.6124V46.7955C98.2263 46.5031 98.1677 46.2495 98.0506 46.0348C97.9379 45.8155 97.7666 45.6465 97.5368 45.5277C97.307 45.409 97.023 45.3496 96.685 45.3496C96.3696 45.3496 96.0924 45.4044 95.8535 45.514C95.6192 45.6237 95.4344 45.7676 95.2992 45.9457C95.1685 46.1239 95.1032 46.3158 95.1032 46.5214H93.8525C93.8525 46.2564 93.9201 45.9937 94.0553 45.7333C94.1905 45.4729 94.3843 45.2376 94.6367 45.0275C94.8936 44.8128 95.2001 44.6438 95.5561 44.5204C95.9166 44.3925 96.3177 44.3285 96.7594 44.3285C97.2912 44.3285 97.7599 44.4199 98.1655 44.6026C98.5756 44.7854 98.8956 45.0618 99.1254 45.4318C99.3598 45.7973 99.477 46.2564 99.477 46.8092V50.2629C99.477 50.5096 99.4972 50.7723 99.5378 51.0509C99.5829 51.3296 99.6482 51.5694 99.7338 51.7705V51.8801H98.4291C98.366 51.7339 98.3165 51.5397 98.2804 51.2976C98.2444 51.0509 98.2263 50.8225 98.2263 50.6124ZM98.4426 47.3848L98.4562 48.2756H97.192C96.836 48.2756 96.5183 48.3053 96.2389 48.3647C95.9594 48.4195 95.7251 48.5041 95.5358 48.6183C95.3465 48.7325 95.2023 48.8764 95.1032 49.05C95.004 49.219 94.9544 49.4177 94.9544 49.6461C94.9544 49.8791 95.0063 50.0916 95.1099 50.2834C95.2136 50.4753 95.369 50.6283 95.5764 50.7426C95.7882 50.8522 96.0473 50.907 96.3538 50.907C96.7368 50.907 97.0749 50.8248 97.3678 50.6603C97.6607 50.4959 97.8928 50.2949 98.0641 50.0573C98.2398 49.8197 98.3345 49.589 98.348 49.3652L98.8821 49.9751C98.8505 50.1669 98.7649 50.3794 98.6252 50.6124C98.4855 50.8453 98.2984 51.0692 98.0641 51.2839C97.8342 51.4941 97.5593 51.6699 97.2393 51.8116C96.9239 51.9486 96.5678 52.0171 96.1712 52.0171C95.6755 52.0171 95.2406 51.9189 94.8666 51.7225C94.497 51.526 94.2086 51.2634 94.0013 50.9344C93.7985 50.6009 93.6971 50.2286 93.6971 49.8175C93.6971 49.42 93.7737 49.0705 93.9269 48.769C94.0801 48.4629 94.301 48.2094 94.5894 48.0084C94.8778 47.8028 95.2248 47.6475 95.6304 47.5424C96.036 47.4373 96.489 47.3848 96.9892 47.3848H98.4426Z" fill="white" fill-opacity="0.4"/>
<path d="M102.695 45.8909V54.7308H101.437V44.4656H102.587L102.695 45.8909ZM107.623 48.1112V48.2551C107.623 48.7941 107.56 49.2944 107.434 49.7558C107.307 50.2126 107.123 50.6101 106.879 50.9481C106.64 51.2862 106.345 51.5489 105.994 51.7362C105.642 51.9235 105.239 52.0171 104.784 52.0171C104.319 52.0171 103.909 51.9395 103.553 51.7842C103.197 51.6288 102.895 51.4027 102.647 51.1058C102.4 50.8088 102.201 50.4525 102.053 50.0367C101.908 49.621 101.809 49.1528 101.755 48.632V47.8645C101.809 47.3163 101.911 46.8252 102.059 46.3912C102.208 45.9572 102.404 45.5871 102.647 45.281C102.895 44.9704 103.195 44.7351 103.547 44.5752C103.898 44.4108 104.304 44.3285 104.763 44.3285C105.223 44.3285 105.631 44.4199 105.987 44.6026C106.343 44.7808 106.643 45.0366 106.886 45.3701C107.129 45.7036 107.312 46.1034 107.434 46.5693C107.56 47.0307 107.623 47.5447 107.623 48.1112ZM106.366 48.2551V48.1112C106.366 47.7411 106.327 47.3939 106.251 47.0696C106.174 46.7406 106.055 46.4528 105.892 46.2061C105.735 45.9549 105.532 45.7584 105.284 45.6168C105.036 45.4706 104.741 45.3975 104.398 45.3975C104.083 45.3975 103.808 45.4524 103.574 45.562C103.344 45.6716 103.148 45.8201 102.985 46.0074C102.823 46.1902 102.69 46.4003 102.587 46.6379C102.487 46.8708 102.413 47.113 102.364 47.3642V49.1391C102.454 49.4588 102.58 49.7604 102.742 50.0436C102.904 50.3223 103.121 50.5484 103.391 50.722C103.661 50.891 104.002 50.9755 104.412 50.9755C104.75 50.9755 105.041 50.9047 105.284 50.7631C105.532 50.6169 105.735 50.4182 105.892 50.1669C106.055 49.9157 106.174 49.6279 106.251 49.3035C106.327 48.9746 106.366 48.6251 106.366 48.2551Z" fill="white" fill-opacity="0.4"/>
<path d="M110.577 44.4656V51.8801H109.326V44.4656H110.577ZM115.377 44.4656L111.909 48.7142H110.158L109.969 47.6041H111.402L113.856 44.4656H115.377ZM114.031 51.8801L111.341 48.5223L112.145 47.6041L115.62 51.8801H114.031Z" fill="white" fill-opacity="0.4"/>
<path d="M116.228 48.2551V48.0975C116.228 47.563 116.305 47.0673 116.458 46.6104C116.612 46.149 116.832 45.7493 117.121 45.4112C117.409 45.0686 117.759 44.8036 118.169 44.6163C118.579 44.4245 119.038 44.3285 119.548 44.3285C120.061 44.3285 120.523 44.4245 120.934 44.6163C121.348 44.8036 121.7 45.0686 121.988 45.4112C122.281 45.7493 122.504 46.149 122.657 46.6104C122.811 47.0673 122.887 47.563 122.887 48.0975V48.2551C122.887 48.7896 122.811 49.2852 122.657 49.7421C122.504 50.1989 122.281 50.5987 121.988 50.9413C121.7 51.2793 121.35 51.5443 120.94 51.7362C120.535 51.9235 120.075 52.0171 119.561 52.0171C119.047 52.0171 118.586 51.9235 118.175 51.7362C117.765 51.5443 117.414 51.2793 117.121 50.9413C116.832 50.5987 116.612 50.1989 116.458 49.7421C116.305 49.2852 116.228 48.7896 116.228 48.2551ZM117.479 48.0975V48.2551C117.479 48.6251 117.522 48.9746 117.608 49.3035C117.693 49.6279 117.822 49.9157 117.993 50.1669C118.169 50.4182 118.387 50.6169 118.649 50.7631C118.91 50.9047 119.214 50.9755 119.561 50.9755C119.904 50.9755 120.203 50.9047 120.46 50.7631C120.722 50.6169 120.938 50.4182 121.109 50.1669C121.281 49.9157 121.409 49.6279 121.495 49.3035C121.585 48.9746 121.63 48.6251 121.63 48.2551V48.0975C121.63 47.732 121.585 47.3871 121.495 47.0627C121.409 46.7338 121.278 46.4437 121.103 46.1924C120.931 45.9366 120.715 45.7356 120.454 45.5894C120.197 45.4432 119.895 45.3701 119.548 45.3701C119.205 45.3701 118.903 45.4432 118.642 45.5894C118.385 45.7356 118.169 45.9366 117.993 46.1924C117.822 46.4437 117.693 46.7338 117.608 47.0627C117.522 47.3871 117.479 47.732 117.479 48.0975Z" fill="white" fill-opacity="0.4"/>
<path d="M129.235 44.4656V45.514H125.699V44.4656H129.235ZM130.337 44.4656V51.8801H129.086V44.4656H130.337ZM125.395 44.4656H126.653L126.463 48.0426C126.432 48.5954 126.38 49.0842 126.308 49.5091C126.24 49.9294 126.146 50.2903 126.024 50.5918C125.907 50.8933 125.758 51.14 125.578 51.3319C125.402 51.5192 125.19 51.6585 124.942 51.7499C124.694 51.8367 124.408 51.8801 124.084 51.8801H123.692V50.7631L123.962 50.7426C124.156 50.7289 124.32 50.6832 124.456 50.6055C124.595 50.5278 124.712 50.4136 124.807 50.2629C124.902 50.1076 124.978 49.9088 125.037 49.6667C125.1 49.4246 125.147 49.1368 125.179 48.8033C125.215 48.4698 125.242 48.0815 125.26 47.6383L125.395 44.4656Z" fill="white" fill-opacity="0.4"/>
<path d="M132.02 48.2551V48.0975C132.02 47.563 132.097 47.0673 132.25 46.6104C132.403 46.149 132.624 45.7493 132.912 45.4112C133.201 45.0686 133.55 44.8036 133.96 44.6163C134.37 44.4245 134.83 44.3285 135.339 44.3285C135.853 44.3285 136.315 44.4245 136.725 44.6163C137.14 44.8036 137.491 45.0686 137.78 45.4112C138.073 45.7493 138.296 46.149 138.449 46.6104C138.602 47.0673 138.679 47.563 138.679 48.0975V48.2551C138.679 48.7896 138.602 49.2852 138.449 49.7421C138.296 50.1989 138.073 50.5987 137.78 50.9413C137.491 51.2793 137.142 51.5443 136.732 51.7362C136.326 51.9235 135.867 52.0171 135.353 52.0171C134.839 52.0171 134.377 51.9235 133.967 51.7362C133.557 51.5443 133.205 51.2793 132.912 50.9413C132.624 50.5987 132.403 50.1989 132.25 49.7421C132.097 49.2852 132.02 48.7896 132.02 48.2551ZM133.271 48.0975V48.2551C133.271 48.6251 133.314 48.9746 133.399 49.3035C133.485 49.6279 133.613 49.9157 133.785 50.1669C133.96 50.4182 134.179 50.6169 134.44 50.7631C134.702 50.9047 135.006 50.9755 135.353 50.9755C135.695 50.9755 135.995 50.9047 136.252 50.7631C136.513 50.6169 136.73 50.4182 136.901 50.1669C137.072 49.9157 137.201 49.6279 137.286 49.3035C137.376 48.9746 137.421 48.6251 137.421 48.2551V48.0975C137.421 47.732 137.376 47.3871 137.286 47.0627C137.201 46.7338 137.07 46.4437 136.894 46.1924C136.723 45.9366 136.507 45.7356 136.245 45.5894C135.988 45.4432 135.686 45.3701 135.339 45.3701C134.997 45.3701 134.695 45.4432 134.433 45.5894C134.177 45.7356 133.96 45.9366 133.785 46.1924C133.613 46.4437 133.485 46.7338 133.399 47.0627C133.314 47.3871 133.271 47.732 133.271 48.0975Z" fill="white" fill-opacity="0.4"/>
<path d="M144.972 44.4656V45.514H141.592V51.8801H140.342V44.4656H144.972Z" fill="white" fill-opacity="0.4"/>
<path d="M147.413 49.8723L150.786 44.4656H152.044V51.8801H150.786V46.4734L147.413 51.8801H146.169V44.4656H147.413V49.8723Z" fill="white" fill-opacity="0.4"/>
<path d="M159.568 44.4656V51.8801H158.317V44.4656H159.568ZM159.142 47.8713V48.9129C158.889 49.0089 158.632 49.0957 158.371 49.1733C158.114 49.2464 157.841 49.3058 157.553 49.3515C157.269 49.3926 156.96 49.4132 156.627 49.4132C156.05 49.4132 155.55 49.3127 155.126 49.1116C154.703 48.9061 154.376 48.5977 154.146 48.1865C153.916 47.7708 153.801 47.2477 153.801 46.6173V44.4519H155.052V46.6173C155.052 47.0285 155.113 47.3619 155.234 47.6178C155.356 47.8736 155.534 48.0632 155.768 48.1865C156.003 48.3053 156.289 48.3647 156.627 48.3647C156.951 48.3647 157.256 48.3442 157.54 48.303C157.828 48.2574 158.103 48.198 158.364 48.1249C158.63 48.0518 158.889 47.9673 159.142 47.8713Z" fill="white" fill-opacity="0.4"/>
<path d="M164.617 52.0171C164.108 52.0171 163.646 51.9303 163.232 51.7567C162.821 51.5786 162.468 51.3296 162.17 51.0098C161.877 50.69 161.652 50.3108 161.494 49.8723C161.336 49.4337 161.258 48.954 161.258 48.4332V48.1454C161.258 47.5424 161.345 47.0056 161.521 46.5351C161.697 46.06 161.936 45.6579 162.238 45.329C162.54 45.0001 162.882 44.7511 163.265 44.5821C163.648 44.4131 164.045 44.3285 164.455 44.3285C164.978 44.3285 165.429 44.4199 165.807 44.6026C166.19 44.7854 166.503 45.0412 166.747 45.3701C166.99 45.6945 167.17 46.0782 167.288 46.5214C167.405 46.9599 167.463 47.4396 167.463 47.9604V48.5292H162.001V47.4944H166.213V47.3985C166.195 47.0696 166.127 46.7498 166.01 46.4391C165.897 46.1285 165.717 45.8727 165.469 45.6716C165.221 45.4706 164.883 45.3701 164.455 45.3701C164.171 45.3701 163.91 45.4318 163.671 45.5551C163.432 45.6739 163.227 45.8521 163.056 46.0897C162.885 46.3272 162.752 46.6173 162.657 46.9599C162.562 47.3026 162.515 47.6977 162.515 48.1454V48.4332C162.515 48.785 162.562 49.1162 162.657 49.4269C162.756 49.7329 162.898 50.0025 163.083 50.2355C163.272 50.4685 163.5 50.6512 163.766 50.7837C164.036 50.9162 164.342 50.9824 164.685 50.9824C165.127 50.9824 165.501 50.891 165.807 50.7083C166.114 50.5256 166.382 50.2812 166.612 49.9751L167.369 50.585C167.211 50.8271 167.01 51.0578 166.767 51.2771C166.524 51.4963 166.224 51.6745 165.868 51.8116C165.516 51.9486 165.1 52.0171 164.617 52.0171Z" fill="white" fill-opacity="0.4"/>
<path d="M171.851 50.9755C172.148 50.9755 172.423 50.9139 172.675 50.7905C172.928 50.6672 173.135 50.4981 173.297 50.2834C173.46 50.0642 173.552 49.8152 173.574 49.5365H174.764C174.742 49.9751 174.595 50.3839 174.325 50.7631C174.059 51.1377 173.71 51.4415 173.277 51.6745C172.844 51.9029 172.369 52.0171 171.851 52.0171C171.301 52.0171 170.821 51.9189 170.411 51.7225C170.005 51.526 169.667 51.2565 169.397 50.9139C169.131 50.5712 168.93 50.1784 168.795 49.7352C168.664 49.2875 168.599 48.8147 168.599 48.3167V48.0289C168.599 47.531 168.664 47.0604 168.795 46.6173C168.93 46.1696 169.131 45.7744 169.397 45.4318C169.667 45.0892 170.005 44.8196 170.411 44.6232C170.821 44.4268 171.301 44.3285 171.851 44.3285C172.423 44.3285 172.923 44.4473 173.351 44.6849C173.78 44.9179 174.115 45.2376 174.359 45.6442C174.607 46.0463 174.742 46.5031 174.764 47.0148H173.574C173.552 46.7087 173.466 46.4323 173.318 46.1856C173.173 45.9389 172.975 45.7425 172.723 45.5963C172.475 45.4455 172.184 45.3701 171.851 45.3701C171.468 45.3701 171.145 45.4478 170.884 45.6031C170.627 45.7539 170.422 45.9595 170.269 46.2199C170.12 46.4757 170.012 46.7612 169.944 47.0764C169.881 47.3871 169.85 47.7046 169.85 48.0289V48.3167C169.85 48.6411 169.881 48.9609 169.944 49.2761C170.007 49.5913 170.113 49.8769 170.262 50.1327C170.415 50.3885 170.62 50.5941 170.877 50.7494C171.139 50.9002 171.463 50.9755 171.851 50.9755Z" fill="white" fill-opacity="0.4"/>
<path d="M177.529 44.4656V51.8801H176.279V44.4656H177.529ZM182.329 44.4656L178.861 48.7142H177.11L176.921 47.6041H178.354L180.808 44.4656H182.329ZM180.984 51.8801L178.293 48.5223L179.098 47.6041L182.572 51.8801H180.984Z" fill="white" fill-opacity="0.4"/>
<path d="M187.974 50.6124V46.7955C187.974 46.5031 187.915 46.2495 187.798 46.0348C187.685 45.8155 187.514 45.6465 187.284 45.5277C187.054 45.409 186.77 45.3496 186.432 45.3496C186.117 45.3496 185.84 45.4044 185.601 45.514C185.366 45.6237 185.182 45.7676 185.046 45.9457C184.916 46.1239 184.85 46.3158 184.85 46.5214H183.6C183.6 46.2564 183.667 45.9937 183.803 45.7333C183.938 45.4729 184.132 45.2376 184.384 45.0275C184.641 44.8128 184.947 44.6438 185.303 44.5204C185.664 44.3925 186.065 44.3285 186.507 44.3285C187.038 44.3285 187.507 44.4199 187.913 44.6026C188.323 44.7854 188.643 45.0618 188.873 45.4318C189.107 45.7973 189.224 46.2564 189.224 46.8092V50.2629C189.224 50.5096 189.244 50.7723 189.285 51.0509C189.33 51.3296 189.395 51.5694 189.481 51.7705V51.8801H188.176C188.113 51.7339 188.064 51.5397 188.028 51.2976C187.992 51.0509 187.974 50.8225 187.974 50.6124ZM188.19 47.3848L188.203 48.2756H186.939C186.583 48.2756 186.265 48.3053 185.986 48.3647C185.707 48.4195 185.472 48.5041 185.283 48.6183C185.094 48.7325 184.95 48.8764 184.85 49.05C184.751 49.219 184.702 49.4177 184.702 49.6461C184.702 49.8791 184.753 50.0916 184.857 50.2834C184.961 50.4753 185.116 50.6283 185.324 50.7426C185.535 50.8522 185.795 50.907 186.101 50.907C186.484 50.907 186.822 50.8248 187.115 50.6603C187.408 50.4959 187.64 50.2949 187.811 50.0573C187.987 49.8197 188.082 49.589 188.095 49.3652L188.629 49.9751C188.598 50.1669 188.512 50.3794 188.372 50.6124C188.233 50.8453 188.046 51.0692 187.811 51.2839C187.581 51.4941 187.307 51.6699 186.987 51.8116C186.671 51.9486 186.315 52.0171 185.918 52.0171C185.423 52.0171 184.988 51.9189 184.614 51.7225C184.244 51.526 183.956 51.2634 183.748 50.9344C183.546 50.6009 183.444 50.2286 183.444 49.8175C183.444 49.42 183.521 49.0705 183.674 48.769C183.827 48.4629 184.048 48.2094 184.337 48.0084C184.625 47.8028 184.972 47.6475 185.378 47.5424C185.783 47.4373 186.236 47.3848 186.736 47.3848H188.19Z" fill="white" fill-opacity="0.4"/>
<path d="M192.672 48.3442H194.024L191.908 51.8801H190.556L192.672 48.3442ZM193.72 44.4656H196.775V51.8801H195.525V45.4935H193.72C193.364 45.4935 193.073 45.5551 192.848 45.6785C192.622 45.7973 192.458 45.9526 192.354 46.1445C192.25 46.3363 192.199 46.5351 192.199 46.7407C192.199 46.9417 192.246 47.1358 192.341 47.3231C192.435 47.5059 192.584 47.6566 192.787 47.7754C192.99 47.8942 193.251 47.9536 193.571 47.9536H195.863V48.9952H193.571C193.152 48.9952 192.78 48.938 192.455 48.8238C192.131 48.7096 191.856 48.552 191.631 48.351C191.405 48.1454 191.234 47.9056 191.117 47.6315C191 47.3528 190.941 47.0513 190.941 46.7269C190.941 46.4026 191.002 46.1034 191.124 45.8293C191.25 45.5551 191.43 45.3153 191.665 45.1097C191.903 44.9042 192.194 44.7465 192.537 44.6369C192.884 44.5227 193.278 44.4656 193.72 44.4656Z" fill="white" fill-opacity="0.4"/>
<path d="M203.583 44.4656V51.8801H202.332V44.4656H203.583ZM208.382 44.4656L204.914 48.7142H203.163L202.974 47.6041H204.407L206.861 44.4656H208.382ZM207.037 51.8801L204.347 48.5223L205.151 47.6041L208.626 51.8801H207.037Z" fill="white" fill-opacity="0.4"/>
<path d="M214.602 44.4656V45.514H211.066V44.4656H214.602ZM215.703 44.4656V51.8801H214.453V44.4656H215.703ZM210.762 44.4656H212.019L211.83 48.0426C211.798 48.5954 211.747 49.0842 211.674 49.5091C211.607 49.9294 211.512 50.2903 211.391 50.5918C211.273 50.8933 211.125 51.14 210.944 51.3319C210.769 51.5192 210.557 51.6585 210.309 51.7499C210.061 51.8367 209.775 51.8801 209.45 51.8801H209.058V50.7631L209.329 50.7426C209.522 50.7289 209.687 50.6832 209.822 50.6055C209.962 50.5278 210.079 50.4136 210.174 50.2629C210.268 50.1076 210.345 49.9088 210.404 49.6667C210.467 49.4246 210.514 49.1368 210.546 48.8033C210.582 48.4698 210.609 48.0815 210.627 47.6383L210.762 44.4656Z" fill="white" fill-opacity="0.4"/>
<path d="M219.07 49.8723L222.443 44.4656H223.701V51.8801H222.443V46.4734L219.07 51.8801H217.826V44.4656H219.07V49.8723Z" fill="white" fill-opacity="0.4"/>
<path d="M230.67 47.6795V48.7073H226.804V47.6795H230.67ZM227.067 44.4656V51.8801H225.817V44.4656H227.067ZM231.684 44.4656V51.8801H230.427V44.4656H231.684Z" fill="white" fill-opacity="0.4"/>
<path d="M235.051 49.8723L238.424 44.4656H239.682V51.8801H238.424V46.4734L235.051 51.8801H233.807V44.4656H235.051V49.8723Z" fill="white" fill-opacity="0.4"/>
<path d="M243.048 44.4656V51.8801H241.798V44.4656H243.048ZM247.848 44.4656L244.38 48.7142H242.629L242.44 47.6041H243.873L246.327 44.4656H247.848ZM246.503 51.8801L243.812 48.5223L244.616 47.6041L248.091 51.8801H246.503Z" fill="white" fill-opacity="0.4"/>
<path d="M253.492 50.6124V46.7955C253.492 46.5031 253.434 46.2495 253.317 46.0348C253.204 45.8155 253.033 45.6465 252.803 45.5277C252.573 45.409 252.289 45.3496 251.951 45.3496C251.636 45.3496 251.359 45.4044 251.12 45.514C250.885 45.6237 250.701 45.7676 250.565 45.9457C250.435 46.1239 250.369 46.3158 250.369 46.5214H249.119C249.119 46.2564 249.186 45.9937 249.322 45.7333C249.457 45.4729 249.65 45.2376 249.903 45.0275C250.16 44.8128 250.466 44.6438 250.822 44.5204C251.183 44.3925 251.584 44.3285 252.026 44.3285C252.557 44.3285 253.026 44.4199 253.432 44.6026C253.842 44.7854 254.162 45.0618 254.392 45.4318C254.626 45.7973 254.743 46.2564 254.743 46.8092V50.2629C254.743 50.5096 254.763 50.7723 254.804 51.0509C254.849 51.3296 254.914 51.5694 255 51.7705V51.8801H253.695C253.632 51.7339 253.583 51.5397 253.547 51.2976C253.511 51.0509 253.492 50.8225 253.492 50.6124ZM253.709 47.3848L253.722 48.2756H252.458C252.102 48.2756 251.784 48.3053 251.505 48.3647C251.226 48.4195 250.991 48.5041 250.802 48.6183C250.613 48.7325 250.468 48.8764 250.369 49.05C250.27 49.219 250.221 49.4177 250.221 49.6461C250.221 49.8791 250.272 50.0916 250.376 50.2834C250.48 50.4753 250.635 50.6283 250.843 50.7426C251.054 50.8522 251.313 50.907 251.62 50.907C252.003 50.907 252.341 50.8248 252.634 50.6603C252.927 50.4959 253.159 50.2949 253.33 50.0573C253.506 49.8197 253.601 49.589 253.614 49.3652L254.148 49.9751C254.117 50.1669 254.031 50.3794 253.891 50.6124C253.752 50.8453 253.565 51.0692 253.33 51.2839C253.1 51.4941 252.826 51.6699 252.506 51.8116C252.19 51.9486 251.834 52.0171 251.437 52.0171C250.942 52.0171 250.507 51.9189 250.133 51.7225C249.763 51.526 249.475 51.2634 249.267 50.9344C249.065 50.6009 248.963 50.2286 248.963 49.8175C248.963 49.42 249.04 49.0705 249.193 48.769C249.346 48.4629 249.567 48.2094 249.856 48.0084C250.144 47.8028 250.491 47.6475 250.897 47.5424C251.302 47.4373 251.755 47.3848 252.255 47.3848H253.709Z" fill="white" fill-opacity="0.4"/>
</svg>
