<svg width="44" height="44" viewBox="0 0 44 44" fill="none" xmlns="http://www.w3.org/2000/svg">
<path d="M1.64157 31.5468C2.31268 32.005 3.06035 32.1989 3.85037 32.1989C6.04993 32.1983 8.57691 30.7013 10.6977 29.2423C12.2935 28.145 14.0625 26.7501 15.9015 25.1532C16.3853 25.6174 16.8805 26.1012 17.3893 26.6105C17.8986 27.1198 18.3829 27.615 18.8466 28.0983C17.2497 29.9374 15.8559 31.7069 14.7586 33.3028C12.7746 36.186 10.72 39.8212 12.4532 42.3602C13.2665 43.551 14.5202 44 15.9803 44C17.8171 44 19.9803 43.2892 22.0007 42.4547C24.0195 43.2892 26.1821 44 28.0195 44C29.479 44 30.7333 43.5515 31.5466 42.3602C33.2793 39.8212 31.2252 36.186 29.2423 33.3028C28.1439 31.7075 26.7501 29.9374 25.1532 28.0983C25.6174 27.6145 26.1012 27.1193 26.6105 26.6105C27.1198 26.1018 27.615 25.618 28.0982 25.1532C29.9373 26.7501 31.7063 28.145 33.3021 29.2423C35.4229 30.7019 37.9499 32.1989 40.1494 32.1989C40.9395 32.1989 41.6882 32.005 42.3593 31.5468C45.0486 29.7104 43.9513 25.625 42.4527 22.0001C43.9513 18.3746 45.0486 14.2892 42.3593 12.4534C39.8193 10.7197 36.1852 12.7738 33.3015 14.7578C31.7057 15.8557 29.9367 17.249 28.0977 18.8465C27.6139 18.3828 27.1187 17.8984 26.61 17.3891C26.1007 16.8803 25.6174 16.3851 25.1526 15.9013C26.7495 14.0628 28.1433 12.2927 29.2417 10.6969C31.2247 7.81366 33.2793 4.17895 31.5461 1.63998C29.7092 -1.05049 25.6245 0.0468746 21.9996 1.5455C18.3737 0.0468746 14.2889 -1.05049 12.4521 1.63998C10.7195 4.17895 12.7735 7.81366 14.7564 10.6969C15.8549 12.2927 17.2487 14.0628 18.8455 15.9013C18.3824 16.3857 17.8975 16.8809 17.3882 17.3891C16.8789 17.8979 16.3837 18.3822 15.9005 18.8465C14.0614 17.249 12.2924 15.8552 10.6967 14.7578C7.81295 12.7738 4.17778 10.7191 1.63994 12.4534C-1.05046 14.2892 0.0468761 18.3746 1.54547 22.0001C0.049048 25.6245 -1.04884 29.7104 1.64157 31.5468ZM27.3137 39.2799C26.5437 39.1463 25.1885 38.7738 22.9341 37.7872C22.9205 37.7802 22.9053 37.7764 22.8906 37.7709C22.8548 37.7563 22.8173 37.7422 22.7815 37.7297C22.7446 37.7161 22.7071 37.7031 22.6691 37.6917C22.636 37.6819 22.6034 37.6737 22.5703 37.6651C22.5279 37.6542 22.4867 37.6439 22.4454 37.6357C22.4145 37.6298 22.384 37.626 22.3531 37.6211C22.3086 37.614 22.2651 37.608 22.2206 37.6037C22.1897 37.6004 22.1582 37.5993 22.1272 37.5972C22.0838 37.595 22.0404 37.5928 21.9969 37.5928C21.9627 37.5928 21.929 37.595 21.8948 37.5961C21.8547 37.5983 21.8134 37.5999 21.7727 37.6037C21.7368 37.608 21.7015 37.6135 21.6668 37.6184C21.6266 37.6238 21.5875 37.6298 21.5479 37.6374C21.5137 37.6439 21.4789 37.6526 21.4453 37.6612C21.4051 37.6716 21.3644 37.6813 21.3242 37.6938C21.2921 37.7036 21.2617 37.715 21.2297 37.7259C21.1873 37.7405 21.1461 37.7568 21.1048 37.7736C21.0923 37.7791 21.0793 37.7823 21.0668 37.7878C18.8124 38.7744 17.4572 39.1468 16.6883 39.2804C17.2313 37.9154 18.8233 35.2749 22.0013 31.5647C25.1782 35.2743 26.7696 37.9148 27.3137 39.2799ZM39.2801 16.687C39.1466 17.4559 38.7741 18.8112 37.787 21.0656C37.7815 21.0787 37.7772 21.0922 37.7723 21.1058C37.7555 21.1449 37.7414 21.1851 37.7267 21.2247C37.7153 21.2589 37.7034 21.2926 37.693 21.3268C37.6811 21.3637 37.673 21.4012 37.6632 21.4381C37.6534 21.4761 37.6442 21.5136 37.6366 21.5516C37.629 21.5863 37.6252 21.6222 37.6197 21.6575C37.6132 21.6966 37.6073 21.7362 37.604 21.7753C37.5997 21.8117 37.5986 21.8486 37.5964 21.8844C37.5953 21.923 37.592 21.9621 37.592 22.0001C37.592 22.0381 37.5953 22.0766 37.5964 22.1157C37.5986 22.1516 37.5997 22.188 37.604 22.2243C37.6073 22.264 37.6132 22.3036 37.6197 22.3427C37.6252 22.3775 37.6295 22.4138 37.6366 22.4486C37.6442 22.4866 37.6534 22.5241 37.6632 22.5621C37.673 22.599 37.6811 22.6365 37.693 22.6728C37.7034 22.7076 37.7153 22.7413 37.7267 22.7755C37.7414 22.8146 37.7555 22.8547 37.7723 22.8944C37.7777 22.9074 37.7821 22.9215 37.787 22.9346C38.7741 25.189 39.1466 26.5432 39.2801 27.3131C37.914 26.7691 35.2747 25.1771 31.564 22.0001C35.2747 18.822 37.9146 17.2306 39.2801 16.687ZM16.6878 4.71868C17.4566 4.85279 18.8119 5.22528 21.0663 6.21187C21.0798 6.21839 21.095 6.22273 21.1097 6.2287C21.1466 6.24336 21.183 6.25748 21.221 6.27105C21.2568 6.28408 21.2932 6.29657 21.3291 6.30689C21.3638 6.31775 21.3991 6.32644 21.4349 6.33567C21.4729 6.34544 21.5126 6.35467 21.5517 6.36282C21.5864 6.36988 21.6206 6.37476 21.6554 6.37965C21.6956 6.38562 21.7357 6.39159 21.7754 6.39594C21.8123 6.3992 21.8487 6.40028 21.8845 6.40245C21.9225 6.40463 21.9611 6.4068 21.9991 6.4068C22.0382 6.4068 22.0784 6.40463 22.1191 6.40245C22.1533 6.40028 22.188 6.3992 22.2217 6.39594C22.2641 6.39159 22.3053 6.38562 22.3466 6.37911C22.3808 6.37368 22.4134 6.36933 22.4465 6.36336C22.4867 6.35467 22.5258 6.34544 22.5665 6.33458C22.6012 6.32589 22.6354 6.31775 22.6691 6.30743C22.706 6.29603 22.7435 6.28354 22.7793 6.26997C22.8162 6.25748 22.8537 6.24336 22.8896 6.2287C22.9042 6.22219 22.9194 6.21784 22.933 6.21187C25.1874 5.22528 26.5426 4.85279 27.3126 4.71868C26.7685 6.08481 25.1765 8.72532 21.9996 12.435C18.8227 8.72532 17.2307 6.08481 16.6878 4.71868ZM20.6851 20.6839C21.1314 20.2381 21.5707 19.7907 22.0013 19.3433C22.4313 19.7907 22.8695 20.2376 23.3158 20.6839C23.7621 21.1302 24.2101 21.5695 24.6564 22.0001C24.2101 22.4307 23.7626 22.8694 23.3158 23.3152C22.8695 23.7615 22.4313 24.2089 22.0013 24.6563C21.5707 24.2095 21.1314 23.7621 20.6851 23.3152C20.2388 22.8694 19.7914 22.4307 19.3445 22.0001C19.7919 21.5695 20.2382 21.1302 20.6851 20.6839ZM12.4363 22.0001C8.72568 25.1776 6.08631 26.7691 4.7202 27.3131C4.85377 26.5432 5.22625 25.189 6.21337 22.9346C6.2188 22.9215 6.22314 22.9074 6.22803 22.8944C6.24486 22.8553 6.25898 22.8151 6.27364 22.7755C6.28504 22.7413 6.29698 22.7076 6.30784 22.6728C6.31924 22.6365 6.32793 22.599 6.33771 22.5621C6.34748 22.5241 6.35671 22.4866 6.36431 22.4486C6.37191 22.4138 6.37571 22.3775 6.38114 22.3427C6.38766 22.3036 6.39417 22.264 6.39689 22.2243C6.40123 22.188 6.40232 22.1516 6.40449 22.1157C6.40666 22.0766 6.40884 22.0381 6.40884 22.0001C6.40884 21.9621 6.40666 21.923 6.40449 21.8844C6.40232 21.8486 6.40123 21.8117 6.39689 21.7753C6.39363 21.7362 6.38712 21.6966 6.38114 21.6575C6.37571 21.6222 6.37191 21.5863 6.36431 21.5516C6.35671 21.5136 6.34748 21.4761 6.33771 21.4381C6.32793 21.4012 6.31979 21.3637 6.30784 21.3268C6.29698 21.2926 6.28558 21.2589 6.27364 21.2247C6.25898 21.1851 6.24486 21.1454 6.22803 21.1058C6.2226 21.0922 6.21825 21.0781 6.21337 21.0656C5.22625 18.8112 4.85377 17.4559 4.7202 16.687C6.08631 17.23 8.72568 18.822 12.4363 22.0001Z" fill="white"/>
<path d="M40.1603 32.2065C38.4157 32.2065 36.2004 31.2362 33.3031 29.2423C30.3489 27.2105 26.8022 24.1709 23.3163 20.685C19.8299 17.1991 16.7904 13.6518 14.7586 10.698C11.8119 6.41548 11.1017 3.62185 12.4542 1.64052C14.4497 -1.28234 19.1034 0.266781 22.9346 1.94459C24.1139 2.46042 24.6504 3.83416 24.1351 5.01297C23.6188 6.19178 22.2429 6.72879 21.0663 6.21295C18.795 5.21876 17.4365 4.8479 16.6704 4.71704C17.4767 6.79937 20.6775 11.4571 26.61 17.3902C32.5435 23.3233 37.2011 26.5242 39.2829 27.3305C39.1525 26.5644 38.7806 25.2058 37.787 22.9346C37.2706 21.7557 37.8087 20.382 38.9869 19.8662C40.1641 19.3509 41.5394 19.8868 42.0558 21.0662C43.7325 24.8974 45.2826 29.5508 42.3593 31.5468C41.7192 31.9839 40.9938 32.2065 40.1603 32.2065Z" fill="#ED4545"/>
<path d="M28.0201 43.9989C25.896 43.9989 23.337 43.0498 21.0668 42.0556C19.888 41.5398 19.351 40.166 19.8668 38.9872C20.3827 37.8079 21.7585 37.2725 22.9352 37.7872C25.2069 38.7814 26.5644 39.1517 27.331 39.2831C26.5242 37.2003 23.3234 32.5426 17.3893 26.6089C11.4557 20.6763 6.79923 17.4765 4.71694 16.6697C4.8478 17.4358 5.21919 18.7943 6.21337 21.0656C6.72919 22.2444 6.19165 23.6182 5.01287 24.134C3.83625 24.6493 2.46091 24.1128 1.94455 22.934C0.267322 19.1027 -1.28286 14.4489 1.64049 12.4529C3.62069 11.1003 6.41535 11.8111 10.6983 14.7578C13.652 16.7907 17.1998 19.8298 20.6856 23.3163C24.1715 26.8022 27.211 30.3495 29.2428 33.3028C32.189 37.5852 32.8992 40.3783 31.5472 42.3597C30.7338 43.5504 29.4801 43.9989 28.0201 43.9989Z" fill="#ED4545"/>
<path d="M3.8406 32.2065C3.00714 32.2065 2.28173 31.9849 1.64049 31.5468C-1.2834 29.5508 0.267323 24.8969 1.94455 21.0656C2.46091 19.8863 3.83625 19.3503 5.01287 19.8656C6.19165 20.3815 6.72865 21.7552 6.21283 22.934C5.21865 25.2053 4.8478 26.5638 4.71695 27.33C6.79923 26.5237 11.4557 23.3233 17.3887 17.3907C23.3228 11.4571 26.5236 6.79937 27.3305 4.7165C26.5638 4.8479 25.2064 5.21822 22.9346 6.21241C21.758 6.72824 20.3821 6.19123 19.8663 5.01242C19.3505 3.83361 19.8875 2.45988 21.0663 1.94405C24.8964 0.266782 29.5512 -1.28451 31.5466 1.63998C32.8986 3.62077 32.1884 6.4144 29.2423 10.6969C27.2105 13.6507 24.171 17.1974 20.6851 20.6834C17.1992 24.1698 13.652 27.2094 10.6977 29.2423C7.80046 31.2362 5.58461 32.2059 3.8406 32.2065Z" fill="#4285F4"/>
<path d="M15.9819 43.9989C14.5213 43.9989 13.2676 43.5504 12.4548 42.3591C11.1023 40.3783 11.8125 37.5847 14.7591 33.3017C16.7909 30.3479 19.8305 26.8006 23.3169 23.3146C26.8027 19.8287 30.3489 16.7891 33.3037 14.7567C37.5861 11.8105 40.378 11.0998 42.3604 12.4523C45.2843 14.4483 43.7336 19.1022 42.0569 22.9335C41.5405 24.1123 40.1652 24.6487 38.988 24.1335C37.8098 23.6176 37.2722 22.2439 37.7886 21.0651C38.7822 18.7938 39.1536 17.4358 39.2839 16.6691C37.2022 17.476 32.5446 20.6763 26.6111 26.6094C20.6786 32.5431 17.4778 37.2003 16.6715 39.2826C17.4376 39.1517 18.7961 38.7809 21.0674 37.7867C22.244 37.2719 23.6198 37.8073 24.1362 38.9867C24.6515 40.1655 24.115 41.5392 22.9357 42.0551C20.665 43.0498 18.1055 43.9989 15.9819 43.9989Z" fill="#4285F4"/>
</svg>
