<svg width="20" height="19" viewBox="0 0 20 19" fill="none" xmlns="http://www.w3.org/2000/svg">
<path fill-rule="evenodd" clip-rule="evenodd" d="M18 16.1C18 16.6523 17.5523 17.1 17 17.1H3.00001C2.44772 17.1 2.00001 16.6523 2.00001 16.1V2.9C2.00001 2.34771 2.44772 1.9 3.00001 1.9H9.05C9.57467 1.9 10 1.47467 10 0.95C10 0.425329 9.57467 0 9.05 0H2C0.89543 0 0 0.895431 0 2V17C0 18.1046 0.895431 19 2 19H18C19.1046 19 20 18.1046 20 17V10.5C20 9.94772 19.5523 9.5 19 9.5C18.4477 9.5 18 9.94772 18 10.5V16.1ZM6.54998 5.50286C6.92597 5.14542 7.51612 5.14532 7.89224 5.50263L9.65425 7.17654C10.0402 7.5432 10.6458 7.5432 11.0318 7.17654L17.9152 0.63723C18.2911 0.280135 18.8809 0.280136 19.2568 0.637231C19.6609 1.02119 19.6609 1.66541 19.2568 2.04937L10.343 10.5174H10.342L6.55023 6.91527C6.14602 6.53127 6.14591 5.88701 6.54998 5.50286Z" fill="#4285F4"/>
</svg>
