<svg width="24" height="24" viewBox="0 0 24 24" fill="none" xmlns="http://www.w3.org/2000/svg">
<path fill-rule="evenodd" clip-rule="evenodd" d="M19.035 15H17.035C15.93 15 15 15.895 15 17V19C15 19.552 14.587 20 14.035 20H10.035C9.483 20 9 19.552 9 19V17C9 15.895 8.14 15 7.035 15H5.035C4.483 15 4 14.552 4 14V10C4 9.448 4.483 9 5.035 9H7.035C8.14 9 9 8.105 9 7V5C9 4.448 9.483 4 10.035 4H14.035C14.587 4 15 4.448 15 5V7C15 8.105 15.93 9 17.035 9H19.035C19.587 9 20 9.448 20 10V14C20 14.552 19.587 15 19.035 15ZM17 6V4C17 2.895 16.14 2 15.035 2H9.035C7.93 2 7 2.895 7 4V6C7 6.552 6.587 7 6.035 7H4.035C2.93 7 2 7.895 2 9V15.001C2 16.105 2.91201 17 4.01601 17.001L6.009 17.002C6.561 17.002 7 17.45 7 18.002V20C7 21.105 7.93 22 9.035 22H15.035C16.14 22 17 21.105 17 20V18C17 17.448 17.483 17 18.035 17H20.035C21.14 17 22 16.105 22 15V9C22 7.895 21.14 7 20.035 7H18.035C17.483 7 17 6.552 17 6Z" fill="#ED4545"/>
</svg>
