<svg width="16" height="16" viewBox="0 0 16 16" fill="none" xmlns="http://www.w3.org/2000/svg">
<path d="M0.391168 0.393822C0.912725 -0.131274 1.75834 -0.131274 2.27989 0.393822L15.501 13.7046C16.0225 14.2297 16.0225 15.081 15.501 15.6061C14.9794 16.1312 14.1338 16.1312 13.6123 15.6061L0.391168 2.29536C-0.130389 1.77027 -0.130389 0.918917 0.391168 0.393822Z" fill="white"/>
<path d="M0.499023 15.6062C-0.0225343 15.0811 -0.0225343 14.2297 0.499023 13.7046L13.7201 0.39386C14.2417 -0.131236 15.0873 -0.131236 15.6088 0.39386C16.1304 0.918956 16.1304 1.7703 15.6088 2.2954L2.38775 15.6062C1.86619 16.1313 1.02058 16.1313 0.499023 15.6062Z" fill="white"/>
</svg>
