<svg width="39" height="32" viewBox="0 0 39 32" fill="none" xmlns="http://www.w3.org/2000/svg">
<path fill-rule="evenodd" clip-rule="evenodd" d="M0 25.575V32C5.19435 32 9.09706 30.5999 11.7089 27.8005C14.3199 25.0011 15.6254 20.591 15.6254 14.5719V0H0V15.3276H7.70521C7.70521 17.9597 7.46819 19.9962 6.99501 21.4379C6.52184 22.8797 5.75387 23.9019 4.69187 24.5039C3.62987 25.1059 2.06618 25.463 0 25.575Z" fill="#ED4545"/>
<path d="M23.4601 32V25.575C25.5263 25.463 27.0908 25.0915 28.152 24.4615C29.214 23.8323 29.96 22.81 30.3908 21.3963C30.8208 19.9826 31.0366 17.9597 31.0366 15.3276H23.4601V0H39V14.5719C39 20.591 37.6871 25.0011 35.0615 27.8005C32.435 30.5999 28.5681 32 23.4601 32Z" fill="#4285F4"/>
</svg>
