<svg width="20" height="21" viewBox="0 0 20 21" fill="none" xmlns="http://www.w3.org/2000/svg">
<path d="M15.7832 14.8911L20 19.1069L18.6069 20.5L14.3911 16.2832C12.8224 17.5407 10.8713 18.2246 8.86088 18.2218C3.96968 18.2218 0 14.2521 0 9.36088C0 4.46968 3.96968 0.5 8.86088 0.5C13.7521 0.5 17.7218 4.46968 17.7218 9.36088C17.7246 11.3713 17.0407 13.3224 15.7832 14.8911ZM13.8082 14.1605C15.0574 12.8754 15.7552 11.1531 15.7527 9.36088C15.7527 5.55366 12.6681 2.46909 8.86088 2.46909C5.05366 2.46909 1.96909 5.55366 1.96909 9.36088C1.96909 13.1681 5.05366 16.2527 8.86088 16.2527C10.6531 16.2552 12.3754 15.5574 13.6605 14.3082L13.8082 14.1605Z" fill="#ED4545"/>
</svg>
