<svg width="24" height="24" viewBox="0 0 24 24" fill="none" xmlns="http://www.w3.org/2000/svg">
<path fill-rule="evenodd" clip-rule="evenodd" d="M9 17.3455H15V15.0545H9V17.3455ZM13.9483 13.2H10.4574C10.4574 10.9091 13.9483 10.9091 13.9483 13.2ZM8.60281 13.2C7.82806 13.2 7.2 13.8281 7.2 14.6028V17.2C7.2 18.3046 8.09543 19.2 9.2 19.2H14.8C15.9046 19.2 16.8 18.3046 16.8 17.2V14.1972C16.8 13.6465 16.3535 13.2 15.8028 13.2C15.8028 8.4 8.60281 8.4 8.60281 13.2ZM20.4 21.6H3.6C2.9376 21.6 2.4 21.0636 2.4 20.4V3.6C2.4 2.9376 2.9376 2.4 3.6 2.4H8.3256C8.784 2.4 9.20281 2.66164 9.40441 3.07324L10.7664 5.85601C11.1696 6.67921 12.006 7.2 12.9216 7.2H20.4C21.0624 7.2 21.6 7.7376 21.6 8.4V20.4C21.6 21.0636 21.0624 21.6 20.4 21.6ZM12.3684 4.1376L10.9632 1.32715C10.5564 0.513548 9.726 0 8.8164 0H2.4C1.074 0 0 1.0752 0 2.4V21.6C0 22.926 1.074 24 2.4 24H21.6C22.926 24 24 22.926 24 21.6V7.2C24 5.8752 22.926 4.8 21.6 4.8H13.4412C12.9864 4.8 12.5712 4.5432 12.3684 4.1376Z" fill="white"/>
</svg>
