<svg width="24" height="24" viewBox="0 0 24 24" fill="none" xmlns="http://www.w3.org/2000/svg">
<path fill-rule="evenodd" clip-rule="evenodd" d="M18.1594 20.4598C18.7911 19.3858 19.1606 18.138 19.1606 16.8C19.1606 14.7924 18.3442 10.5323 17.0284 6.80391C18.4038 5.47551 19.716 4.42572 20.648 4.02012C20.9674 3.88092 21.3451 4.05616 21.4393 4.39336C22.2164 7.15696 20.897 18.1354 18.1594 20.4598ZM15.3277 20.2342C13.5317 21.9946 10.7273 22.0091 8.89668 20.4059C7.89198 19.5251 7.24245 18.2436 7.24245 16.8C7.24245 13.218 9.7095 4.97247 11.5747 2.83887C11.8011 2.57967 12.2135 2.57615 12.4411 2.83535C14.3039 4.95815 16.777 13.1484 16.777 16.8C16.777 18.1464 16.2192 19.3618 15.3277 20.2342ZM5.47023 19.6617C3.60742 17.6433 1.94722 7.36207 2.76838 4.39687C2.86134 4.05848 3.24153 3.88086 3.56093 4.02246C4.46433 4.42086 5.71573 5.43372 7.05771 6.72012C5.88259 10.0201 4.03886 16.3341 5.47023 19.6617ZM21.3607 1.4373C19.9055 1.4373 17.9866 2.67945 16.0702 4.40625C14.9165 1.87305 13.5173 0 12.0097 0C10.5152 0 9.1279 1.83578 7.98137 4.33418C6.49637 3.00698 3.67416 0.769092 1.88048 1.62949C-1.68542 3.33829 0.611205 16.3022 2.30835 19.8926C3.53234 22.4822 6.09235 23.9976 8.47598 24H14.3015V23.99C17.7399 24.0644 20.2594 22.2758 21.3869 19.8926C23.1806 16.0994 26.2531 1.4373 21.3607 1.4373Z" fill="white"/>
</svg>
