<svg width="20" height="30" viewBox="0 0 20 30" fill="none" xmlns="http://www.w3.org/2000/svg">
<path d="M12.2949 13.4072C12.7902 12.9994 13.5197 13.0285 13.9801 13.4939L13.9807 13.4946C14.4416 13.9585 14.4704 14.6928 14.0668 15.1918L13.9807 15.2884L8.96948 20.3443L6.01927 17.3674C5.52771 16.8725 5.52764 16.0678 6.01927 15.5729C6.51027 15.0762 7.30813 15.0758 7.80084 15.5729L8.83071 16.6124L8.97013 16.7527L9.1089 16.6124L12.1992 13.4946L12.2949 13.4072Z" fill="white"/>
<path fill-rule="evenodd" clip-rule="evenodd" d="M12.9136 0.5C14.4155 0.50005 15.6299 1.72757 15.6299 3.24V3.44033H17.2836C18.7855 3.44033 19.9999 4.66728 20 6.17967V26.76C20 28.2711 18.7855 29.5 17.2836 29.5H2.71635C1.2145 29.5 0 28.2711 0 26.76V6.17967C6.99112e-05 4.66728 1.21448 3.44033 2.71635 3.44033H4.37006V3.24C4.37006 1.72757 5.58454 0.50005 7.08641 0.5H12.9136ZM3.44491 5.97934C2.93505 5.97934 2.51911 6.39742 2.51911 6.91508V25.2905C2.51925 26.2137 3.26107 26.9609 4.17282 26.961H15.8272C16.7389 26.9609 17.4807 26.2137 17.4809 25.2905V6.91508C17.4809 6.39742 17.0649 5.97934 16.5551 5.97934H15.6299V6.17967C15.6299 7.69069 14.4154 8.91962 12.9136 8.91967H7.08641C5.58461 8.91962 4.37006 7.69069 4.37006 6.17967V5.97934H3.44491ZM8.54353 3.03902C7.63169 3.03902 6.88931 3.78624 6.88917 4.70951C6.88917 5.6329 7.63161 6.38 8.54353 6.38H11.4565C12.3684 6.38 13.1108 5.6329 13.1108 4.70951C13.1107 3.78624 12.3683 3.03902 11.4565 3.03902H8.54353Z" fill="white"/>
</svg>
