<svg width="26" height="28" viewBox="0 0 26 28" fill="none" xmlns="http://www.w3.org/2000/svg">
<path fill-rule="evenodd" clip-rule="evenodd" d="M18.3081 7.63635C18.3081 4.82871 15.9274 2.54544 13 2.54544C10.0726 2.54544 7.69194 4.82871 7.69194 7.63635C7.69194 10.444 10.0726 12.7273 13 12.7273C15.9274 12.7273 18.3081 10.444 18.3081 7.63635ZM23.3295 25.4545H20.9621C20.2296 25.4545 19.6351 24.8844 19.6351 24.1818C19.6351 23.4793 20.2296 22.9091 20.9621 22.9091H21.5314C22.4497 22.9091 23.1278 22.022 22.7801 21.2062C21.1731 17.4338 17.3991 15.2727 13 15.2727C8.60094 15.2727 4.82691 17.4338 3.2199 21.2062C2.87222 22.022 3.55032 22.9091 4.46862 22.9091H5.03791C5.77042 22.9091 6.36492 23.4793 6.36492 24.1818C6.36492 24.8844 5.77042 25.4545 5.03791 25.4545H2.67051C1.01174 25.4545 -0.294036 23.9998 0.0576226 22.4458C1.02369 18.1707 4.03999 15.0156 8.01308 13.5838C6.20037 12.185 5.03791 10.0418 5.03791 7.63635C5.03791 3.11689 9.13042 -0.484939 13.9541 0.0534251C17.4495 0.44288 20.345 3.11428 20.8692 6.45264C21.3204 9.33028 20.0929 11.9585 17.9869 13.5838C21.96 15.0156 24.9763 18.1707 25.9424 22.4458C26.294 23.9998 24.9883 25.4545 23.3295 25.4545ZM16.981 24.1818C16.981 24.8844 16.3865 25.4545 15.654 25.4545H14.5977C14.5977 26.7273 14.7357 28 13.2707 28C12.5369 28 11.9437 27.4298 11.9437 26.7273V25.4545H10.346C9.61346 25.4545 9.01895 24.8844 9.01895 24.1818C9.01895 23.4793 9.61346 22.9091 10.346 22.9091H11.9437V21.6364C11.9437 20.9338 12.5369 20.3636 13.2707 20.3636C14.0032 20.3636 14.5977 20.9338 14.5977 21.6364V22.9091H15.654C16.3865 22.9091 16.981 23.4793 16.981 24.1818Z" fill="white"/>
</svg>
