<svg width="28" height="28" viewBox="0 0 28 28" fill="none" xmlns="http://www.w3.org/2000/svg">
<path fill-rule="evenodd" clip-rule="evenodd" d="M16.8 15.4V12.6C16.8 11.8272 16.1728 11.2 15.4 11.2H12.6C11.8272 11.2 11.2 11.8272 11.2 12.6V15.4C11.2 16.1728 11.8272 16.8 12.6 16.8H15.4C16.1728 16.8 16.8 16.1728 16.8 15.4ZM16.8 8.4C18.347 8.4 19.6 9.653 19.6 11.2V16.8C19.6 18.347 18.347 19.6 16.8 19.6H11.2C9.653 19.6 8.4 18.347 8.4 16.8V11.2C8.4 9.653 9.653 8.4 11.2 8.4H16.8ZM0 21V23.8H2.8C3.5728 23.8 4.2 24.4272 4.2 25.2V28H7V23.8C7 22.253 5.747 21 4.2 21H0ZM2.8 4.2H0V7H4.2C5.747 7 7 5.747 7 4.2V0H4.2V2.8C4.2 3.5728 3.5728 4.2 2.8 4.2ZM23.8 2.8V0H21V4.2C21 5.747 22.253 7 23.8 7H28V4.2H25.2C24.4272 4.2 23.8 3.5728 23.8 2.8ZM23.8 21H28V23.8H25.2C24.4272 23.8 23.8 24.4272 23.8 25.2V28H21V23.8C21 22.253 22.253 21 23.8 21Z" fill="white"/>
</svg>
