<svg width="26" height="20" viewBox="0 0 26 20" fill="none" xmlns="http://www.w3.org/2000/svg">
<path fill-rule="evenodd" clip-rule="evenodd" d="M15.4911 16.3519C14.8062 16.9051 13.9262 17.2102 13.0125 17.2102C12.1 17.2102 11.2175 16.9063 10.5051 16.3353C6.01271 12.7397 3.15281 10.8321 3.00406 6.91958C2.84782 2.77913 7.62266 1.26563 10.5501 4.66774C11.1425 5.35504 12.0325 5.74915 12.9925 5.74915C13.9612 5.74915 14.8574 5.35029 15.4511 4.65467C18.3148 1.30717 23.2171 2.73283 22.9934 7.04065C22.7934 10.8725 19.8235 12.8513 15.4911 16.3519ZM13.4837 3.24327C13.3612 3.3869 13.1762 3.45931 12.9925 3.45931C12.8125 3.45931 12.6337 3.38927 12.5137 3.25039C8.08514 -1.8955 0.265406 0.667349 0.505398 6.9991C0.696642 12.0382 4.45652 14.5357 8.88387 18.0791C10.0676 19.0264 11.54 19.5 13.0125 19.5C14.4887 19.5 15.9636 19.024 17.1448 18.0696C21.5234 14.531 25.2358 12.05 25.4896 7.14868C25.827 0.675668 17.9011 -1.92399 13.4837 3.24327Z" fill="white"/>
</svg>
