<svg width="168" height="162" viewBox="0 0 168 162" fill="none" xmlns="http://www.w3.org/2000/svg">
<g opacity="0.1">
<path d="M143.094 103.2H126.294C117.012 103.2 109.2 110.718 109.2 120V136.8C109.2 141.437 105.731 145.2 101.094 145.2H67.494C62.8572 145.2 58.8 141.437 58.8 136.8V120C58.8 110.718 51.576 103.2 42.294 103.2H25.494C20.8572 103.2 16.8 99.4368 16.8 94.8V61.2C16.8 56.5632 20.8572 52.8 25.494 52.8H42.294C51.576 52.8 58.8 45.282 58.8 36V19.2C58.8 14.5632 62.8572 10.8 67.494 10.8H101.094C105.731 10.8 109.2 14.5632 109.2 19.2V36C109.2 45.282 117.012 52.8 126.294 52.8H143.094C147.731 52.8 151.2 56.5632 151.2 61.2V94.8C151.2 99.4368 147.731 103.2 143.094 103.2Z" fill="#ED4545"/>
<path fill-rule="evenodd" clip-rule="evenodd" d="M126 27.6V10.8C126 1.518 118.776 -6 109.494 -6H59.094C49.812 -6 42 1.518 42 10.8V27.6C42 32.2368 38.5308 36 33.894 36H17.094C7.81203 36 0 43.518 0 52.8V103.208C0 112.482 7.66085 120 16.9345 120.008L33.6756 120.016C38.3124 120.016 42 123.78 42 128.416V145.2C42 154.482 49.812 162 59.094 162H109.494C118.776 162 126 154.482 126 145.2V128.4C126 123.763 130.057 120 134.694 120H151.494C160.776 120 168 112.482 168 103.2V52.8C168 43.518 160.776 36 151.494 36H134.694C130.057 36 126 32.2368 126 27.6ZM126.294 103.2H143.094C147.731 103.2 151.2 99.4368 151.2 94.8V61.2C151.2 56.5632 147.731 52.8 143.094 52.8H126.294C117.012 52.8 109.2 45.282 109.2 36V19.2C109.2 14.5632 105.731 10.8 101.094 10.8H67.494C62.8572 10.8 58.8 14.5632 58.8 19.2V36C58.8 45.282 51.576 52.8 42.294 52.8H25.494C20.8572 52.8 16.8 56.5632 16.8 61.2V94.8C16.8 99.4368 20.8572 103.2 25.494 103.2H42.294C51.576 103.2 58.8 110.718 58.8 120V136.8C58.8 141.437 62.8572 145.2 67.494 145.2H101.094C105.731 145.2 109.2 141.437 109.2 136.8V120C109.2 110.718 117.012 103.2 126.294 103.2Z" fill="#ED4545"/>
</g>
</svg>
